<?xml version="1.0" encoding="UTF-8"?>
<svg version="1.1" xmlns="http://www.w3.org/2000/svg" width="579" height="578">
<path d="M0 0 C191.07 0 382.14 0 579 0 C579 190.74 579 381.48 579 578 C387.93 578 196.86 578 0 578 C0 387.26 0 196.52 0 0 Z " fill="#4F46E5" transform="translate(0,0)"/>
<path d="M0 0 C0.98811676 -0.00671722 1.97623352 -0.01343445 2.99429321 -0.02035522 C6.2419343 -0.03926223 9.48936794 -0.0432557 12.73706055 -0.04541016 C15.00856102 -0.05184296 17.28006068 -0.05857168 19.55155945 -0.06558228 C24.30669067 -0.07753668 29.06174935 -0.08126497 33.81689453 -0.08007812 C39.88936754 -0.07987501 45.96137221 -0.10717879 52.03373432 -0.14162254 C56.7239747 -0.16393442 61.4141031 -0.16791435 66.1043911 -0.16685867 C68.34214072 -0.1692081 70.57989374 -0.17799421 72.81759071 -0.19352341 C88.21958869 -0.29040832 100.05758205 -0.27973035 111.65112305 11.00146484 C120.55762096 20.43945359 122.26817666 29.98211217 122.19223022 42.77697754 C122.1969102 43.99944829 122.20159017 45.22191903 122.20641196 46.48143435 C122.2162575 49.84878479 122.21278239 53.21562814 122.2034533 56.58294702 C122.19663568 60.2244588 122.20715742 63.86592787 122.21539307 67.50743103 C122.22870378 74.63089616 122.22586457 81.75426623 122.21715514 88.87773502 C122.2103685 94.66927612 122.20946611 100.46079066 122.21272659 106.25233459 C122.21318629 107.07792548 122.21364599 107.90351636 122.21411962 108.75412515 C122.21507884 110.4315155 122.21605148 112.10890585 122.21703739 113.78629619 C122.22558349 129.49981137 122.21576942 145.21327397 122.1996363 160.92678052 C122.18623382 174.3975024 122.18856213 187.86814671 122.20239258 201.33886719 C122.21846219 216.99775516 122.22475959 232.65659709 122.21555579 248.31549215 C122.21460018 249.98656813 122.21365707 251.65764411 122.21272659 253.32872009 C122.21226377 254.15083206 122.21180094 254.97294404 122.21132409 255.81996849 C122.20873834 261.60175643 122.21309622 267.38351506 122.22016525 273.16529846 C122.22859581 280.21537387 122.22626749 287.26534912 122.21032302 294.31541312 C122.20246117 297.90960043 122.19931286 301.50362101 122.20927048 305.09780693 C122.21991756 308.99999044 122.20716888 312.90190339 122.19223022 316.80407715 C122.19892239 317.93152108 122.20561455 319.05896501 122.21250951 320.2205739 C122.12212672 332.41232854 118.85432669 342.07591955 110.4987793 351.04052734 C102.38688617 358.76530193 92.64047175 360.59457176 81.81201172 360.56518555 C80.34227654 360.57285194 80.34227654 360.57285194 78.84284973 360.58067322 C75.61741962 360.59452466 72.3922043 360.59361556 69.16674805 360.59130859 C66.91384299 360.59519838 64.66093866 360.59953363 62.40803528 360.60429382 C57.68980531 360.6117468 52.97165018 360.61147172 48.25341797 360.60620117 C42.22461031 360.60041235 36.19611044 360.61732809 30.16735363 360.64054585 C25.51489997 360.65532126 20.86251974 360.65614962 16.21004677 360.65303612 C13.98822737 360.65354756 11.76640368 360.6587519 9.54460716 360.66884804 C6.42911519 360.68126685 3.31421391 360.67438764 0.19873047 360.6628418 C-0.70809479 360.67048553 -1.61492004 360.67812927 -2.54922485 360.68600464 C-14.57496759 360.58813384 -22.73533223 356.66873071 -31.20043945 348.30224609 C-37.57537552 341.41945349 -40.3043428 334.43174772 -40.32294178 325.00518608 C-40.32739962 323.95351246 -40.33185747 322.90183883 -40.3364504 321.81829631 C-40.33626604 320.6691884 -40.33608167 319.52008049 -40.33589172 318.33615112 C-40.33956841 317.11049096 -40.3432451 315.8848308 -40.3470332 314.62202942 C-40.35614357 311.2226757 -40.36076611 307.82337018 -40.36342251 304.42400885 C-40.36733267 300.75649615 -40.37691046 297.08899734 -40.38563538 293.42149353 C-40.40537895 284.56620285 -40.41546299 275.71091106 -40.42436317 266.85560387 C-40.42874922 262.6829621 -40.43411518 258.51032159 -40.43935204 254.33768082 C-40.45636165 240.4628647 -40.47085542 226.58804936 -40.47810078 212.71322441 C-40.48001059 209.11431757 -40.48193093 205.51541073 -40.48388672 201.91650391 C-40.48437046 201.02204178 -40.4848542 200.12757966 -40.4853526 199.20601262 C-40.49365146 184.71900311 -40.51898714 170.2320762 -40.5514674 155.74510275 C-40.58455924 140.86375638 -40.60255143 125.98245197 -40.60574502 111.10106862 C-40.60790807 102.74889509 -40.61662673 94.39684205 -40.64220619 86.04470444 C-40.66394219 78.9312193 -40.67194936 71.81788393 -40.66223941 64.70436935 C-40.65770316 61.07762752 -40.65954112 57.45119453 -40.67900085 53.82449532 C-40.69995488 49.88513831 -40.68962006 45.94620366 -40.6764679 42.00680542 C-40.68743714 40.87108184 -40.69840639 39.73535825 -40.70970803 38.56521881 C-40.61815535 27.17759037 -37.56492885 18.71503132 -29.6184082 10.52099609 C-20.53394339 2.18139897 -12.09338503 -0.01195215 0 0 Z " fill="#FEFEFE" transform="translate(149.188720703125,107.70947265625)"/>
<path d="M0 0 C0.98157578 -0.00511093 1.96315155 -0.01022186 2.97447205 -0.01548767 C6.19927167 -0.0293176 9.423856 -0.02843198 12.64868164 -0.02612305 C14.90255309 -0.03001334 17.1564238 -0.03434869 19.41029358 -0.03910828 C24.12674337 -0.04655611 28.84311828 -0.04628942 33.55957031 -0.04101562 C39.58956852 -0.03522019 45.61925966 -0.05216103 51.64920712 -0.0753603 C56.30161822 -0.09012407 60.9539558 -0.09096577 65.60638618 -0.08785057 C67.82903209 -0.08836236 70.05168227 -0.09357322 72.27430534 -0.10366249 C75.38749786 -0.11606196 78.50009753 -0.10921413 81.61328125 -0.09765625 C82.52213074 -0.10529999 83.43098022 -0.11294373 84.36737061 -0.12081909 C94.7884152 -0.03572964 104.02703391 3.38970278 111.55883789 10.6496582 C121.73839264 21.39853928 122.31548474 32.23267853 122.25952148 46.21801758 C122.26359171 47.92886184 122.26893612 49.63970347 122.27545166 51.35054016 C122.28907739 55.97656314 122.28384627 60.60238441 122.2743144 65.22841072 C122.26669316 70.08086801 122.27377025 74.9333086 122.2784729 79.7857666 C122.28392328 87.93297409 122.27675767 96.08009986 122.26245117 104.22729492 C122.24612605 113.63236271 122.25141507 123.03723535 122.26793039 132.44229841 C122.2815657 140.53259174 122.28345492 148.6228265 122.27561438 156.71312761 C122.27094911 161.53841377 122.27028142 166.36360836 122.28022385 171.18888855 C122.28892104 175.7263771 122.28282151 180.26361525 122.26554108 184.80107689 C122.2615909 186.46145907 122.26268498 188.12186251 122.26932907 189.7822361 C122.3161535 202.67746133 121.12622942 213.68684623 111.82836914 223.41137695 C102.49830421 232.09909662 94.60250743 234.42060006 82.09912109 234.43579102 C81.11958969 234.44075592 80.14005829 234.44572083 79.13084412 234.45083618 C75.89459526 234.46542428 72.65839546 234.4722548 69.42211914 234.4777832 C67.1663564 234.4835381 64.91059366 234.48929579 62.65483093 234.49505615 C57.92467013 234.50555709 53.19452628 234.51140547 48.46435547 234.51489258 C42.41981691 234.52037055 36.37550437 234.54438773 30.33103657 234.57286453 C25.67001198 234.59154154 21.00904124 234.59669925 16.34798241 234.59822845 C14.12057448 234.60124486 11.89316728 234.60923901 9.66579628 234.62241364 C6.54053473 234.63957734 3.41581763 234.63756846 0.29052734 234.63110352 C-0.61944 234.6403183 -1.52940735 234.64953308 -2.46694946 234.6590271 C-14.31566479 234.58272043 -22.51596532 230.79898934 -30.88256836 222.54418945 C-37.84452437 214.91919002 -40.24143763 207.33843143 -40.27583313 197.10372925 C-40.27950982 196.39259668 -40.28318651 195.68146412 -40.28697461 194.94878209 C-40.29796652 192.57156021 -40.30184763 190.19438211 -40.30566406 187.81713867 C-40.31193216 186.11013146 -40.31857926 184.4031256 -40.32557678 182.69612122 C-40.34658011 177.09470564 -40.35697634 171.49328991 -40.36694336 165.8918457 C-40.37099244 163.96014517 -40.37510941 162.02844478 -40.37929344 160.09674454 C-40.39833768 151.01929611 -40.41256978 141.94185577 -40.42090541 132.86439121 C-40.4306724 122.40220204 -40.45698112 111.94022474 -40.4974063 101.47811019 C-40.52761417 93.38108739 -40.54237875 85.28412516 -40.54568642 77.18704712 C-40.54803174 72.35598535 -40.55692445 67.52515011 -40.5821476 62.69414902 C-40.60551495 58.1451989 -40.60962691 53.5966231 -40.59938622 49.0476284 C-40.59889283 47.38484765 -40.60515461 45.72204792 -40.61894226 44.05932426 C-40.7235913 30.68280711 -39.19944627 20.44652006 -29.55834961 10.50512695 C-20.49354115 2.18357449 -12.07098194 -0.03283096 0 0 Z " fill="#FEFEFE" transform="translate(347.128662109375,107.725341796875)"/>
<path d="M0 0 C32.01 0 64.02 0 97 0 C97 0.33 97 0.66 97 1 C96.18547363 1.14248169 96.18547363 1.14248169 95.35449219 1.2878418 C84.72893953 3.18205003 74.7170073 5.11544539 65 10 C64.42475586 10.27827637 63.84951172 10.55655273 63.25683594 10.84326172 C37.25944097 23.47310494 17.19717529 44.5381741 7.53125 72.046875 C3.23556772 85.01877483 1.70221039 97.18916121 1.73930359 110.83122253 C1.73627847 112.41736302 1.73238719 114.00350205 1.72771102 115.58963853 C1.71746843 119.92352719 1.71960328 124.25733277 1.72389162 128.59122813 C1.7263657 133.27510181 1.71733613 137.95895585 1.70985413 142.64282227 C1.69712335 151.81019324 1.69531147 160.9775349 1.69765439 170.14491322 C1.69943978 177.60018077 1.69768316 185.05543945 1.69342995 192.51070595 C1.69283476 193.57311007 1.69223957 194.63551419 1.69162634 195.73011238 C1.69041455 197.8886488 1.68920041 200.04718523 1.68798397 202.20572165 C1.67711435 222.43653844 1.67926799 242.66733854 1.68536881 262.89815626 C1.69053557 281.38416788 1.67928785 299.87012676 1.66027059 318.35612794 C1.64087239 337.35884696 1.63263979 356.36154105 1.63639385 375.36427003 C1.63830312 386.02423323 1.63584517 396.68415157 1.62167931 407.34410667 C1.60973915 416.42075917 1.60838999 425.49733921 1.62046947 434.57399275 C1.62634012 439.19978213 1.62750814 443.82543915 1.61546707 448.45121956 C1.60454687 452.69595559 1.60778379 456.94044973 1.62172876 461.18517474 C1.62435895 462.71069243 1.6220627 464.23622946 1.61399289 465.76172807 C1.46419266 496.22393361 12.86325591 523.20505786 33.75 545.1875 C56.53262808 567.08295409 84.51866647 575.16107391 115.52114868 575.14044189 C117.08580103 575.14302965 118.65045272 575.14604395 120.21510351 575.1494453 C124.49422158 575.15747012 128.77332285 575.15930233 133.05244756 575.16004276 C137.67566577 575.1619012 142.29887541 575.16945239 146.92208862 575.17617798 C157.02142103 575.18972896 167.12074945 575.19578077 177.22008944 575.20018864 C183.53170003 575.20295614 189.8433091 575.20719438 196.15491867 575.21169281 C213.64656541 575.2238805 231.13821094 575.23418129 248.62986183 575.2375679 C249.7481779 575.23778747 250.86649398 575.23800703 252.01869842 575.23823325 C253.1396103 575.23845153 254.26052219 575.23866981 255.4154011 575.2388947 C257.68660204 575.23933816 259.95780297 575.23978472 262.22900391 575.24023438 C263.35558554 575.2404558 264.48216717 575.24067723 265.64288764 575.24090537 C283.89293201 575.24485248 302.14293644 575.26230609 320.39296539 575.2855939 C339.15156667 575.30933656 357.91014793 575.32177105 376.66876447 575.32293582 C387.19237215 575.32385086 397.71592774 575.32956016 408.23952103 575.34775543 C417.20091002 575.36319569 426.16223082 575.36825372 435.1236306 575.36001733 C439.69068461 575.35612491 444.25760145 575.35697123 448.82463837 575.37107468 C453.0157474 575.38389822 457.20661736 575.3825428 461.39772646 575.37048396 C462.9037611 575.36854151 464.40981318 575.37153718 465.91582341 575.38032833 C494.757456 575.53785892 521.95646139 565.92484475 543 546 C544.09828125 545.01966797 544.09828125 545.01966797 545.21875 544.01953125 C559.96220351 530.29992867 569.75900582 510.51296802 574 491 C574.24835238 489.91559872 574.24835238 489.91559872 574.50172198 488.80929035 C576.2055781 480.62107341 576.28624577 472.55525494 576.26742554 464.23365784 C576.27116793 462.65449254 576.27577179 461.0753291 576.28115618 459.49616855 C576.29332931 455.18140784 576.29313245 450.86672499 576.29076743 446.55195105 C576.29035781 441.88844792 576.30141243 437.22496926 576.31088257 432.56147766 C576.32746348 423.43287349 576.33299084 414.30429516 576.33410732 405.17567719 C576.3350594 397.74952445 576.33917767 390.3233802 576.34550858 382.89723015 C576.36311486 361.81391782 576.37234868 340.73062582 576.37084763 319.64730609 C576.37076772 318.51177369 576.3706878 317.3762413 576.37060547 316.20629883 C576.37052371 315.06936948 576.37044195 313.93244013 576.37035771 312.76105838 C576.3695455 294.35209992 576.38866828 275.94322342 576.4168822 257.53428865 C576.44566486 238.60387028 576.45941947 219.67349179 576.45769465 200.74305099 C576.45703249 190.12653799 576.46244779 179.51011084 576.48405075 168.89361763 C576.50233373 159.8511012 576.50655195 150.80870954 576.4930319 141.76618255 C576.48653734 137.16010997 576.48625656 132.55427624 576.5037384 127.94822693 C576.63240514 91.7270568 572.45586802 59.8569028 545.9296875 32.8984375 C544.95452006 31.9308836 543.97803023 30.96466003 543 30 C542.17757812 29.16726562 541.35515625 28.33453125 540.5078125 27.4765625 C524.99993024 12.57882643 502.07000025 3.73775799 481 1 C481 0.67 481 0.34 481 0 C513.34 0 545.68 0 579 0 C579 190.74 579 381.48 579 578 C387.93 578 196.86 578 0 578 C0 387.26 0 196.52 0 0 Z " fill="#D6D5F6" transform="translate(0,0)"/>
<path d="M0 0 C0.88582764 0.00749268 1.77165527 0.01498535 2.68432617 0.02270508 C4.36619019 0.0636731 4.36619019 0.0636731 6.08203125 0.10546875 C9.65015625 0.16734375 13.21828125 0.22921875 16.89453125 0.29296875 C16.89453125 11.84296875 16.89453125 23.39296875 16.89453125 35.29296875 C8.64453125 35.29296875 0.39453125 35.29296875 -8.10546875 35.29296875 C-8.17435216 30.79003503 -8.23407723 26.28892956 -8.27026367 21.78588867 C-8.28534811 20.25425014 -8.30581853 18.72265477 -8.33178711 17.19116211 C-8.36818722 14.98931221 -8.38519788 12.78803342 -8.3984375 10.5859375 C-8.41392136 9.90146042 -8.42940521 9.21698334 -8.44535828 8.51176453 C-8.44633956 5.73829582 -8.38554927 3.74547669 -6.90625 1.35546875 C-4.48584415 -0.07262321 -2.8028528 -0.04860438 0 0 Z " fill="#CFCFEF" transform="translate(562.10546875,542.70703125)"/>
<path d="M0 0 C2.875 0.875 2.875 0.875 4.875 2.875 C5.16134574 4.87942018 5.44423296 6.88601294 5.62890625 8.90234375 C5.83547055 11.0836702 5.83547055 11.0836702 6.875 13.875 C5.885 13.545 4.895 13.215 3.875 12.875 C3.875 12.215 3.875 11.555 3.875 10.875 C2.8025 11.101875 1.73 11.32875 0.625 11.5625 C-3.125 11.875 -3.125 11.875 -5.5625 10.75 C-7.125 8.875 -7.125 8.875 -7.625 6.4375 C-6.72433491 1.82159142 -4.7522738 -0.19009095 0 0 Z " fill="#7F869F" transform="translate(569.125,551.125)"/>
<path d="M0 0 C0.66 0 1.32 0 2 0 C1.67 1.32 1.34 2.64 1 4 C3.49092811 5.24546405 4.41080733 4.7767578 7 4 C6.67 5.32 6.34 6.64 6 8 C3.125 8.625 3.125 8.625 0 9 C-2 7 -2 7 -2.25 4.5 C-2 2 -2 2 0 0 Z " fill="#CFCEEF" transform="translate(566,553)"/>
<path d="M0 0 C1.9375 0.3125 1.9375 0.3125 4 1 C4.33 1.99 4.66 2.98 5 4 C4.360625 4.12375 3.72125 4.2475 3.0625 4.375 C2.0415625 4.684375 2.0415625 4.684375 1 5 C0.67 5.66 0.34 6.32 0 7 C0 6.34 0 5.68 0 5 C-0.66 4.67 -1.32 4.34 -2 4 C-1.34 2.68 -0.68 1.36 0 0 Z " fill="#A5A9C5" transform="translate(568,553)"/>
</svg>
